<svg width="17" height="16" viewBox="0 0 17 16" fill="none" xmlns="http://www.w3.org/2000/svg">
<path d="M8.58806 0.00146484C7.02229 0.00146484 5.49168 0.465769 4.18979 1.33566C2.8879 2.20556 1.8732 3.44197 1.27401 4.88855C0.674817 6.33514 0.51804 7.92691 0.823507 9.4626C1.12897 10.9983 1.88296 12.4089 2.99013 13.5161C4.09729 14.6232 5.50791 15.3772 7.04359 15.6827C8.57928 15.9881 10.1711 15.8314 11.6176 15.2322C13.0642 14.633 14.3006 13.6183 15.1705 12.3164C16.0404 11.0145 16.5047 9.4839 16.5047 7.91813C16.5047 6.8785 16.3 5.84905 15.9021 4.88855C15.5043 3.92806 14.9211 3.05533 14.186 2.3202C13.4509 1.58507 12.5781 1.00194 11.6176 0.604085C10.6571 0.206236 9.62769 0.00146484 8.58806 0.00146484ZM8.58806 14.2515C7.33544 14.2515 6.11096 13.88 5.06945 13.1841C4.02793 12.4882 3.21618 11.4991 2.73682 10.3418C2.25747 9.18453 2.13204 7.91111 2.37642 6.68256C2.62079 5.45401 3.22398 4.32552 4.10971 3.43979C4.99545 2.55406 6.12394 1.95086 7.35249 1.70649C8.58103 1.46212 9.85445 1.58754 11.0117 2.06689C12.169 2.54625 13.1581 3.35801 13.854 4.39952C14.5499 5.44103 14.9214 6.66552 14.9214 7.91813C14.9214 9.59784 14.2541 11.2087 13.0664 12.3965C11.8787 13.5842 10.2678 14.2515 8.58806 14.2515ZM9.37972 7.86272V3.9598C9.37972 3.74984 9.29632 3.54847 9.14785 3.40001C8.99938 3.25154 8.79802 3.16813 8.58806 3.16813C8.37809 3.16813 8.17673 3.25154 8.02826 3.40001C7.8798 3.54847 7.79639 3.74984 7.79639 3.9598V7.91813C7.79639 7.91813 7.79639 7.97355 7.79639 8.00521C7.77691 8.16615 7.80731 8.32919 7.88347 8.4723L9.07097 10.5306C9.17596 10.7133 9.3492 10.8468 9.5526 10.9017C9.756 10.9566 9.97289 10.9285 10.1556 10.8235C10.3382 10.7186 10.4717 10.5453 10.5266 10.3419C10.5816 10.1385 10.5535 9.92163 10.4485 9.73897L9.37972 7.86272Z" fill="#999999"/>
</svg>
