<svg width="16" height="15" viewBox="0 0 16 15" fill="none" xmlns="http://www.w3.org/2000/svg">
<path d="M8.18533 2.31964C8.1357 2.27196 8.06967 2.24534 8.00099 2.24534C7.93232 2.24534 7.86629 2.27196 7.81666 2.31964L1.68001 8.20815C1.65395 8.23319 1.63321 8.26328 1.61906 8.2966C1.60491 8.32992 1.59763 8.36578 1.59768 8.40201L1.59668 13.9286C1.59668 14.2127 1.70906 14.4853 1.90909 14.6862C2.10913 14.8871 2.38044 15 2.66334 15H5.86666C6.00811 15 6.14377 14.9436 6.24379 14.8431C6.34381 14.7426 6.4 14.6064 6.4 14.4643V9.91071C6.4 9.83967 6.42809 9.77154 6.4781 9.72131C6.52811 9.67108 6.59594 9.64286 6.66666 9.64286H9.33332C9.40405 9.64286 9.47188 9.67108 9.52188 9.72131C9.57189 9.77154 9.59999 9.83967 9.59999 9.91071V14.4643C9.59999 14.6064 9.65618 14.7426 9.7562 14.8431C9.85622 14.9436 9.99187 15 10.1333 15H13.3353C13.6182 15 13.8895 14.8871 14.0896 14.6862C14.2896 14.4853 14.402 14.2127 14.402 13.9286V8.40201C14.402 8.36578 14.3947 8.32992 14.3806 8.2966C14.3664 8.26328 14.3457 8.23319 14.3196 8.20815L8.18533 2.31964Z" fill="black"/>
<path d="M15.8303 7.10324L13.337 4.70725V1.07143C13.337 0.929348 13.2808 0.793087 13.1808 0.692621C13.0808 0.592155 12.9451 0.535714 12.8036 0.535714H11.2037C11.0622 0.535714 10.9265 0.592155 10.8265 0.692621C10.7265 0.793087 10.6703 0.929348 10.6703 1.07143V2.14286L8.73966 0.288616C8.55899 0.105134 8.29033 0 7.99999 0C7.71066 0 7.44266 0.105134 7.26199 0.288951L0.172012 7.10257C-0.0353206 7.30346 -0.0613205 7.63393 0.127346 7.85156C0.174723 7.9065 0.232732 7.95117 0.297845 7.98287C0.362957 8.01457 0.43381 8.03263 0.506092 8.03595C0.578373 8.03927 0.650571 8.02778 0.718292 8.00218C0.786013 7.97659 0.84784 7.93742 0.90001 7.88705L7.81666 1.24821C7.86629 1.20053 7.93232 1.17392 8.00099 1.17392C8.06967 1.17392 8.1357 1.20053 8.18533 1.24821L15.1026 7.88705C15.2045 7.98521 15.341 8.03877 15.4822 8.03601C15.6233 8.03325 15.7576 7.97438 15.8556 7.87232C16.0603 7.65937 16.0433 7.30781 15.8303 7.10324Z" fill="black"/>
</svg>
